<?xml version="1.0" encoding="UTF-8" standalone="no"?>
<!-- Created with Inkscape (http://www.inkscape.org/) -->

<svg
   width="210mm"
   height="297mm"
   viewBox="0 0 210 297"
   version="1.1"
   id="svg1"
   xml:space="preserve"
   inkscape:version="1.4 (86a8ad7, 2024-10-11)"
   sodipodi:docname="balon3.svg"
   xmlns:inkscape="http://www.inkscape.org/namespaces/inkscape"
   xmlns:sodipodi="http://sodipodi.sourceforge.net/DTD/sodipodi-0.dtd"
   xmlns="http://www.w3.org/2000/svg"
   xmlns:svg="http://www.w3.org/2000/svg"><sodipodi:namedview
     id="namedview1"
     pagecolor="#ffffff"
     bordercolor="#000000"
     borderopacity="0.25"
     inkscape:showpageshadow="2"
     inkscape:pageopacity="0.0"
     inkscape:pagecheckerboard="0"
     inkscape:deskcolor="#d1d1d1"
     inkscape:document-units="mm"
     inkscape:zoom="0.68862935"
     inkscape:cx="362.31392"
     inkscape:cy="561.25984"
     inkscape:window-width="1245"
     inkscape:window-height="981"
     inkscape:window-x="687"
     inkscape:window-y="55"
     inkscape:window-maximized="0"
     inkscape:current-layer="layer1" /><defs
     id="defs1" /><g
     inkscape:label="Capa 1"
     inkscape:groupmode="layer"
     id="layer1"><path
       style="fill:#000000"
       d="m 90.244455,145.50735 c -9.98506,-1.33318 -20.284909,-9.44676 -24.412878,-19.23096 -10.559428,-25.02817 8.027709,-51.825799 33.46246,-48.243809 6.895193,0.97105 12.863543,4.18336 18.078153,9.7301 21.75482,23.140409 3.5725,61.843679 -27.127735,57.744669 z m 13.949275,-7.7776 c 2.47465,-0.98486 6.24526,-3.47198 8.37913,-5.52695 l 3.87977,-3.7363 -2.69169,-1.48058 -2.69168,-1.48058 -10.55533,6.35584 c -5.805437,3.49571 -10.556616,6.64909 -10.55818,7.00752 -0.0061,1.39278 9.859501,0.60359 14.23798,-1.13895 z m -11.553882,-8.26694 c 5.935512,-3.62004 11.102792,-6.90297 11.482842,-7.2954 0.38006,-0.39244 -1.54457,-2.10721 -4.276943,-3.81061 l -4.967955,-3.09708 -10.738939,6.63776 -10.738938,6.63776 3.736018,3.75473 c 2.054809,2.0651 3.955631,3.75473 4.224047,3.75473 0.268416,0 5.344357,-2.96185 11.279868,-6.58189 z m -17.40923,-22.76666 -0.01816,-13.663249 -1.606252,2.17231 c -4.239158,5.733089 -6.236045,18.233419 -4.001787,25.050829 0.876839,2.67551 0.928047,2.69762 3.267583,1.41074 l 2.376784,-1.30736 z m 44.818132,12.95539 c 2.14657,-7.62097 2.09509,-7.69892 -9.98902,-15.12211 -6.01438,-3.6946 -11.160817,-6.717439 -11.436544,-6.717439 -0.275726,0 -0.48849,2.834859 -0.472808,6.299699 l 0.02851,6.29971 9.978462,6.2128 c 5.48815,3.41704 10.19598,6.25191 10.46183,6.29971 0.26585,0.0478 0.90915,-1.42477 1.42957,-3.27237 z m -31.525411,-7.84321 3.063359,-1.97313 V 96.803151 83.771101 l -2.654911,0.60816 c -1.460201,0.33448 -3.66582,1.15762 -4.901375,1.8292 l -2.246463,1.22105 v 14.414889 14.41489 l 1.838015,-1.23891 c 1.010909,-0.68141 3.216528,-2.12683 4.901375,-3.21205 z m 30.837811,-9.91606 c 0,-1.87163 -4.43951,-8.725969 -7.32382,-11.307529 -3.30298,-2.9563 -7.72413,-5.39216 -11.26055,-6.20409 -2.636044,-0.60522 -2.654712,-0.5859 -2.626402,2.71796 l 0.02851,3.32751 9.978462,6.2128 c 5.48815,3.417039 10.25416,6.251899 10.59113,6.299709 0.33697,0.0478 0.61267,-0.42306 0.61267,-1.04636 z"
       id="path1" /></g></svg>
